<?xml version="1.0" encoding="utf-8"?>
<!-- Svg Vector Icons : http://www.onlinewebfonts.com/icon -->
<!DOCTYPE svg PUBLIC "-//W3C//DTD SVG 1.1//EN" "http://www.w3.org/Graphics/SVG/1.1/DTD/svg11.dtd">
<svg version="1.1" xmlns="http://www.w3.org/2000/svg" xmlns:xlink="http://www.w3.org/1999/xlink" x="0px" y="0px" viewBox="0 0 256 256" enable-background="new 0 0 256 256" xml:space="preserve">
<metadata> Svg Vector Icons : http://www.onlinewebfonts.com/icon </metadata>
<g><g><path fill="#000000" d="M177.1,119.9c-32.4,0-58.6,26.2-58.6,58.6c0,32.4,26.2,58.6,58.6,58.6c32.4,0,58.6-26.3,58.6-58.6C235.7,146.1,209.5,119.9,177.1,119.9z M177.1,228.1c-27.4,0-49.6-22.2-49.6-49.6c0-27.4,22.2-49.6,49.6-49.6c27.4,0,49.6,22.2,49.6,49.6C226.7,205.9,204.5,228.1,177.1,228.1z"/><path fill="#000000" d="M64.2,89.7H162v9.8H64.2V89.7L64.2,89.7z"/><path fill="#000000" d="M64.2,133.6h48.9v9.8H64.2V133.6z"/><path fill="#000000" d="M64.2,172.7h39.1v9.8H64.2V172.7z"/><path fill="#000000" d="M34.9,221.6V45.7h17.3v3.4c0,6.7,5.5,12.2,12.2,12.2h97.3c6.7,0,12.2-5.5,12.2-12.2v-3.4h17.3v63.5H206V31h-32v-8.8c0-6.7-5.5-12.2-12.2-12.2H64.4c-6.7,0-12.2,5.5-12.2,12.2V31h-32v195.4c0,10.8,8.7,19.6,19.6,19.6h83.1v-14.7H44.7C39.3,231.3,34.9,227,34.9,221.6z M66.9,24.7h92.4v22H66.9V24.7z"/><path fill="#000000" d="M206.5,173.7H181v-25.5h-7.8v25.5h-25.5v7.8h25.5V207h7.8v-25.5h25.5V173.7z"/></g></g>
</svg>